<svg xmlns="http://www.w3.org/2000/svg" viewBox="0 0 849.71 850.42"><defs><style>.cls-1{fill:#f4e8a1;}.cls-2{fill:#f6e174;}.cls-3{fill:#dfb175;}.cls-4{fill:#303518;}.cls-5{fill:#fff;stroke:#303518;stroke-miterlimit:10;stroke-width:5.5px;}.cls-6{fill:#da8662;}.cls-7{fill:#d1bb7e;}</style></defs><g id="圖層_2" data-name="圖層 2"><g id="圖層_1-2" data-name="圖層 1"><path class="cls-1" d="M229,449.13a33.07,33.07,0,0,0,54.46,37.54C317.69,437,388,326,411.12,222.5a276.2,276.2,0,0,0-99.15,20C300.72,292.1,275.86,379.49,229,449.13Z"/><path class="cls-1" d="M406.31,560a33.07,33.07,0,0,0-5.76,65.89c40.41,3.52,113,7.54,187.13.37,19.15-29.38,32.67-62.84,41.6-96.85C581.08,544.09,491.33,566.4,406.31,560Z"/><path class="cls-1" d="M355.89,388.63a33.07,33.07,0,0,0,54.46,37.53c26-37.82,73-111.23,104.2-189.81-24.26-7.84-52.75-12.73-86-13.73C414.64,271.8,391.68,335.4,355.89,388.63Z"/><path class="cls-1" d="M574.25,644.93c-45,3.18-148.86,6.16-238.5-23.69a33.19,33.19,0,0,0-42.11,20.69h0a33.06,33.06,0,0,0,20.49,41.82,1133.71,1133.71,0,0,0,134.32,37.39C503.33,711.24,544.36,682.73,574.25,644.93Z"/><path class="cls-2" d="M448.45,721.14A245.38,245.38,0,0,1,404.6,725C161.06,725,72,504.47,47.15,440.74A24.41,24.41,0,0,0,0,450.85C13.3,673.75,198.27,850.42,424.5,850.42c235.86,0,426.86-192,425.2-428.27C848.05,187.67,650.43-4.52,416,.08A423.57,423.57,0,0,0,137.65,111.32C105,141.17,85.06,182.77,84,227c0,1.65-.07,3.33-.07,5,0,61-8.93,72.19-15.62,89.3S60,377.45,104.75,357C184.58,320.6,242,270.09,312,242.46a276.2,276.2,0,0,1,99.15-20c1.51,0,3-.09,4.52-.09,4.37,0,8.64.08,12.86.21,33.3,1,61.79,5.89,86,13.73C615.26,268.92,643.46,352.3,643.46,419a441.16,441.16,0,0,1-14.18,110.38c-8.93,34-22.45,67.47-41.6,96.85-4.21,6.45-8.68,12.71-13.43,18.72C544.36,682.73,503.33,711.24,448.45,721.14Z"/><path class="cls-3" d="M621.86,653c173.2-173.2,55-430.49-107.31-459.27-141.94-25.17-227.36,56.34-227.36,56.34l-.76,3.68c8.37-4.07,16.86-7.85,25.54-11.28a276.2,276.2,0,0,1,99.15-20c1.51,0,3-.09,4.52-.09,4.37,0,8.64.08,12.86.21,33.3,1,61.79,5.89,86,13.73C615.26,268.92,643.46,352.3,643.46,419a441.16,441.16,0,0,1-14.18,110.38c-8.93,34-22.45,67.47-41.6,96.85-4.21,6.45-8.68,12.71-13.43,18.72-29.89,37.8-70.92,66.31-125.8,76.21A245.38,245.38,0,0,1,404.6,725c-85.06,0-151.26-26.91-202.48-64.64h0S427.53,847.32,621.86,653Z"/><path class="cls-4" d="M214.46,145.36c6.15,13.59,15.82,35-8.78,46.1-19.54,8.84-34.27-10.26-40.41-23.84a27,27,0,1,1,49.19-22.26Z"/><path class="cls-1" d="M276.61,61.59l3.66-4.39A12.61,12.61,0,0,1,295.68,54c11,5.63,27.64,18.94,28.3,48.21.81,35.67-28,43-38.86,54.17a4.91,4.91,0,0,1-8.47-2.9,18.64,18.64,0,0,1,3.84-12.86c9.07-12.23,19.33-17.36,12.23-39.45A74,74,0,0,0,276.85,73.7,9.19,9.19,0,0,1,276.61,61.59Z"/><path class="cls-5" d="M199.53,143.11c2.23,4.93,5.74,12.69-3.19,16.73-7.09,3.2-12.43-3.73-14.66-8.66a9.79,9.79,0,1,1,17.85-8.07Z"/><path class="cls-6" d="M111.11,295.35c5.65-2.85,14.1-7.52,26.42-15.14a10.63,10.63,0,0,1,16.05,6.91c2.62,13.27,3,31.73-12.94,37.57-15.61,5.73-26.9-4.6-33.37-13.65A10.64,10.64,0,0,1,111.11,295.35Z"/><path class="cls-7" d="M433.65,5.64s29.56,10.16,34.2,34.62c-8.27,26.06-57.54,21.17-57.54,21.17S441.13,64.5,460,39.93C458.42,20.68,433.65,5.64,433.65,5.64Z"/><path class="cls-7" d="M547.55,38.84S577.12,49,581.76,73.47c-8.27,26.05-57.54,21.17-57.54,21.17S555,97.7,573.87,73.13C572.32,53.88,547.55,38.84,547.55,38.84Z"/><path class="cls-7" d="M529.83,93.13s29.56,10.17,34.2,34.63c-8.27,26.05-57.54,21.17-57.54,21.17s30.82,3.06,49.65-21.51C554.6,108.18,529.83,93.13,529.83,93.13Z"/><path class="cls-7" d="M593.23,81.89s29.56,10.16,34.2,34.62c-8.27,26.06-57.54,21.17-57.54,21.17s30.82,3.07,49.65-21.5C618,96.93,593.23,81.89,593.23,81.89Z"/><path class="cls-7" d="M427.74,65.56s29.56,10.17,34.2,34.63c-8.27,26.05-57.54,21.17-57.54,21.17s32.51.37,49.65-21.51C452.51,80.61,427.74,65.56,427.74,65.56Z"/><path class="cls-7" d="M483.9,58.28s29.57,10.17,34.21,34.63c-8.27,26.06-57.54,21.17-57.54,21.17s32.51.38,49.65-21.51C508.67,73.33,483.9,58.28,483.9,58.28Z"/><path class="cls-7" d="M407.41,128.25s29.57,10.17,34.21,34.63c-8.27,26.05-57.54,21.17-57.54,21.17s31.25,3.11,49.65-21.51C432.18,143.3,407.41,128.25,407.41,128.25Z"/><path class="cls-7" d="M465.11,115.8s29.57,10.16,34.21,34.62c-8.27,26.06-57.54,21.17-57.54,21.17s31.25,3.11,49.65-21.5C489.88,130.84,465.11,115.8,465.11,115.8Z"/><path class="cls-7" d="M689.87,660.82s-20.12,14.58-41.06,5c-16.85-19,7.3-49.51,7.3-49.51s-15.11,19.08-3.78,44.4C667.94,669.66,689.87,660.82,689.87,660.82Z"/><path class="cls-7" d="M728,699.86s-20.12,14.58-41.07,5c-16.84-19,7.31-49.51,7.31-49.51s-15.12,19.08-3.78,44.4C706.09,708.7,728,699.86,728,699.86Z"/><path class="cls-7" d="M675.37,714.41s-20.12,14.58-41.06,5.05c-16.85-19,7.31-49.52,7.31-49.52S626.5,689,637.83,714.35C653.44,723.25,675.37,714.41,675.37,714.41Z"/><path class="cls-7" d="M668.31,764.8s-18.84,13.64-38.44,4.73c-15.77-17.79,6.84-46.35,6.84-46.35s-14.15,17.86-3.54,41.56C647.78,773.07,668.31,764.8,668.31,764.8Z"/><path class="cls-7" d="M633.66,728.63s-18.83,13.64-38.43,4.72c-15.77-17.79,6.84-46.34,6.84-46.34s-14.15,17.85-3.55,41.55C613.13,736.9,633.66,728.63,633.66,728.63Z"/><path class="cls-7" d="M609.55,768.09s-15.72,11.39-32.09,3.95c-13.16-14.85,5.71-38.69,5.71-38.69A34.75,34.75,0,0,0,580.22,768C592.41,775,609.55,768.09,609.55,768.09Z"/><path class="cls-7" d="M65.35,582.36s-2.92-21.19,12.81-33.25c21.27-5.1,34.67,25.62,34.67,25.62a38.33,38.33,0,0,0-32.21-20.87C67.52,562.11,65.35,582.36,65.35,582.36Z"/><path class="cls-7" d="M25.36,565.45s-2.92-21.2,12.8-33.25c21.28-5.1,34.67,25.62,34.67,25.62A38.31,38.31,0,0,0,40.62,537C27.53,545.2,25.36,565.45,25.36,565.45Z"/><path class="cls-7" d="M40.23,531.63s-2.38-17.29,10.45-27.11c17.34-4.16,28.26,20.89,28.26,20.89a31.22,31.22,0,0,0-26.26-17C42,515.12,40.23,531.63,40.23,531.63Z"/><path class="cls-7" d="M13.73,514.74s-2.38-17.29,10.44-27.11c17.35-4.16,28.27,20.89,28.27,20.89a31.24,31.24,0,0,0-26.26-17C15.51,498.23,13.73,514.74,13.73,514.74Z"/><path class="cls-7" d="M13.73,482.68s-2.38-17.28,10.44-27.11c17.35-4.16,28.27,20.89,28.27,20.89a31.24,31.24,0,0,0-26.26-17C15.51,466.17,13.73,482.68,13.73,482.68Z"/></g></g></svg>