<svg width="1440" height="889" viewBox="0 0 1440 889" fill="none" xmlns="http://www.w3.org/2000/svg">
<g clip-path="url(#clip0_274_2)">
<rect width="1440" height="889" fill="white"/>
<path d="M142.292 2346.11L1444.49 2346.11L1444.49 381.608L1626.57 207.788L1630.3 -678.774L1447.68 -853.11L1444.49 -2061L142.292 -2061" fill="url(#paint0_linear_274_2)"/>
<path fill-rule="evenodd" clip-rule="evenodd" d="M1351 -1189.38H48.8044L48.6618 -169.816L-133.42 12.3863L-137 905.806L45.6183 1088.55L48.8044 2829.37H1351" fill="url(#paint1_linear_274_2)"/>
<path d="M105.149 2713.9L1195.81 2713.9L1195.81 954.879L1348.31 807.552L1351.43 -34.8076L1198.48 -182.571L1195.81 -1362.76L105.149 -1362.76" fill="url(#paint2_linear_274_2)"/>
<path d="M1337.57 -1410.77L267.258 -1410.77V-212.712L114.758 -58.2048L111.637 729.851L264.59 884.816L267.258 2795.2H1337.57" fill="url(#paint3_linear_274_2)"/>
<path d="M350.061 2485.7L1025.64 2485.7L1025.64 208.454L1120.11 101.752L1122.04 -442.474L1027.3 -549.492L1025.64 -1969.37L350.061 -1969.37" fill="url(#paint4_linear_274_2)"/>
<path d="M1127.94 -1223.44H438.25V67.5362L341.815 181.688L339.842 763.913L436.563 878.403L438.25 2874H1127.94" fill="url(#paint5_linear_274_2)"/>
<path d="M46.9225 2628.75L736.362 2628.75L736.362 753.808L832.762 644.917L834.735 89.5286L738.049 -19.6845L736.362 -1468.69L46.9225 -1468.69" fill="url(#paint6_linear_274_2)"/>
<path d="M1300.69 -1965.95H622.393V-674.82L525.747 -560.654L523.77 21.6397L620.701 136.143L622.393 2570.64H1300.69" fill="url(#paint7_linear_274_2)"/>
<path d="M109.936 755.458C125.925 755.458 138.887 742.496 138.887 726.507C138.887 710.518 125.925 697.556 109.936 697.556C93.9467 697.556 80.9849 710.518 80.9849 726.507C80.9849 742.496 93.9467 755.458 109.936 755.458Z" fill="url(#paint8_radial_274_2)"/>
<path d="M618.904 417.79C635.704 417.79 649.322 404.172 649.322 387.372C649.322 370.573 635.704 356.954 618.904 356.954C602.105 356.954 588.486 370.573 588.486 387.372C588.486 404.172 602.105 417.79 618.904 417.79Z" fill="url(#paint9_radial_274_2)"/>
<path d="M1024.22 594.909C1041.02 594.909 1054.64 581.29 1054.64 564.49C1054.64 547.691 1041.02 534.072 1024.22 534.072C1007.42 534.072 993.802 547.691 993.802 564.49C993.802 581.29 1007.42 594.909 1024.22 594.909Z" fill="url(#paint10_radial_274_2)"/>
<path d="M336.436 203.684C353.366 203.684 367.09 189.959 367.09 173.03C367.09 156.1 353.366 142.375 336.436 142.375C319.506 142.375 305.782 156.1 305.782 173.03C305.782 189.959 319.506 203.684 336.436 203.684Z" fill="url(#paint11_radial_274_2)"/>
<path d="M1119.82 81.067C1136.75 81.067 1150.47 67.3427 1150.47 50.4129C1150.47 33.4831 1136.75 19.7588 1119.82 19.7588C1102.89 19.7588 1089.17 33.4831 1089.17 50.4129C1089.17 67.3427 1102.89 81.067 1119.82 81.067Z" fill="url(#paint12_radial_274_2)"/>
<path d="M1351.43 288.834C1368.36 288.834 1382.08 275.11 1382.08 258.18C1382.08 241.25 1368.36 227.526 1351.43 227.526C1334.5 227.526 1320.77 241.25 1320.77 258.18C1320.77 275.11 1334.5 288.834 1351.43 288.834Z" fill="url(#paint13_radial_274_2)"/>
</g>
<defs>
<linearGradient id="paint0_linear_274_2" x1="1630.72" y1="-315.688" x2="142.292" y2="-315.688" gradientUnits="userSpaceOnUse">
<stop offset="0.0501078" stop-color="#4A7FA1" stop-opacity="0.71"/>
<stop offset="1" stop-color="white" stop-opacity="0"/>
</linearGradient>
<linearGradient id="paint1_linear_274_2" x1="1220.22" y1="341.861" x2="-168.027" y2="354.961" gradientUnits="userSpaceOnUse">
<stop stop-color="white" stop-opacity="0"/>
<stop offset="1" stop-color="#4A7FA1" stop-opacity="0.71"/>
</linearGradient>
<linearGradient id="paint2_linear_274_2" x1="1351.43" y1="355.252" x2="-5.87091" y2="355.252" gradientUnits="userSpaceOnUse">
<stop stop-color="#4A7FA1" stop-opacity="0.71"/>
<stop offset="1" stop-color="white" stop-opacity="0"/>
</linearGradient>
<linearGradient id="paint3_linear_274_2" x1="111.637" y1="397.826" x2="1358.24" y2="397.826" gradientUnits="userSpaceOnUse">
<stop stop-color="#4A7FA1" stop-opacity="0.71"/>
<stop offset="1" stop-color="white" stop-opacity="0"/>
</linearGradient>
<linearGradient id="paint4_linear_274_2" x1="1123.22" y1="-194.82" x2="350.058" y2="-194.82" gradientUnits="userSpaceOnUse">
<stop stop-color="#4A7FA1" stop-opacity="0.71"/>
<stop offset="1" stop-color="white" stop-opacity="0"/>
</linearGradient>
<linearGradient id="paint5_linear_274_2" x1="339.84" y1="450.619" x2="1126.63" y2="450.619" gradientUnits="userSpaceOnUse">
<stop stop-color="#4A7FA1" stop-opacity="0.71"/>
<stop offset="1" stop-color="white" stop-opacity="0"/>
</linearGradient>
<linearGradient id="paint6_linear_274_2" x1="833.712" y1="244.556" x2="46.9222" y2="244.556" gradientUnits="userSpaceOnUse">
<stop stop-color="#4A7FA1" stop-opacity="0.71"/>
<stop offset="1" stop-color="white" stop-opacity="0"/>
</linearGradient>
<linearGradient id="paint7_linear_274_2" x1="523.765" y1="-314.032" x2="1300.34" y2="-314.032" gradientUnits="userSpaceOnUse">
<stop stop-color="#4A7FA1" stop-opacity="0.71"/>
<stop offset="1" stop-color="white" stop-opacity="0"/>
</linearGradient>
<radialGradient id="paint8_radial_274_2" cx="0" cy="0" r="1" gradientUnits="userSpaceOnUse" gradientTransform="translate(101.869 709.216) rotate(65.5519) scale(174.047 174.047)">
<stop stop-color="white"/>
<stop offset="0.56" stop-color="#87A4B8"/>
<stop offset="1" stop-color="#547E9A"/>
</radialGradient>
<radialGradient id="paint9_radial_274_2" cx="0" cy="0" r="1" gradientUnits="userSpaceOnUse" gradientTransform="translate(610.428 369.205) rotate(65.5519) scale(182.866 182.866)">
<stop stop-color="#E6ECF0"/>
<stop offset="0.56" stop-color="#7F9FB4"/>
<stop offset="1" stop-color="#547E9A"/>
</radialGradient>
<radialGradient id="paint10_radial_274_2" cx="0" cy="0" r="1" gradientUnits="userSpaceOnUse" gradientTransform="translate(1015.74 546.323) rotate(65.5519) scale(182.866 182.866)">
<stop stop-color="white"/>
<stop offset="0.56" stop-color="#87A4B8"/>
<stop offset="1" stop-color="#547E9A"/>
</radialGradient>
<radialGradient id="paint11_radial_274_2" cx="0" cy="0" r="1" gradientUnits="userSpaceOnUse" gradientTransform="translate(327.895 154.721) rotate(65.5519) scale(184.285 184.285)">
<stop stop-color="#E6ECF0"/>
<stop offset="0.56" stop-color="#7F9FB4"/>
<stop offset="1" stop-color="#547E9A"/>
</radialGradient>
<radialGradient id="paint12_radial_274_2" cx="0" cy="0" r="1" gradientUnits="userSpaceOnUse" gradientTransform="translate(1111.28 32.1045) rotate(65.5519) scale(184.285 184.285)">
<stop stop-color="white"/>
<stop offset="0.56" stop-color="#87A4B8"/>
<stop offset="1" stop-color="#547E9A"/>
</radialGradient>
<radialGradient id="paint13_radial_274_2" cx="0" cy="0" r="1" gradientUnits="userSpaceOnUse" gradientTransform="translate(1342.89 239.872) rotate(65.5519) scale(184.285 184.285)">
<stop stop-color="white"/>
<stop offset="0.56" stop-color="#87A4B8"/>
<stop offset="1" stop-color="#547E9A"/>
</radialGradient>
<clipPath id="clip0_274_2">
<rect width="1440" height="889" fill="white"/>
</clipPath>
</defs>
</svg>
