<?xml version="1.0" encoding="utf-8"?>
<svg xml:space="preserve" style="height: 100%; width: 100%; background: none; shape-rendering: auto;" viewBox="0 0 300 200" y="0px" x="0px" xmlns:xlink="http://www.w3.org/1999/xlink" xmlns="http://www.w3.org/2000/svg" id="Layer_1" version="1.1" width="200px" height="200px"><g class="ldl-scale" style="transform-origin: 50% 50%; transform: rotate(0deg) scale(0.8, 0.8);"><g class="ldl-ani" style="transform-origin: 150px 150px;">
<style type="text/css">
	.st0{fill:#C42026;}
	.st1{fill:#010101;}
</style>
<g class="ldl-layer"><g class="ldl-ani" style="transform-origin: 150px 150px; transform: matrix(1, 0, 0, 1, 0, 0); animation: 1s linear -1s infinite normal forwards running bounce-c2b4d70e-061d-4774-a04f-a7b2e732e51d;"><g id="XMLID_13_">
	<g class="ldl-layer"><g class="ldl-ani"><polygon points="274.033,12.618 241.081,12.618 25.967,287.382 59.416,287.382" class="st0" id="XMLID_16_" style="fill: rgb(196, 32, 38);"></polygon></g></g>
</g></g></g>
<g class="ldl-layer"><g class="ldl-ani" style="transform-origin: 150px 150px; transform: matrix(1, 0, 0, 1, 0, 0); animation: 1s linear -0.833333s infinite normal forwards running bounce-c2b4d70e-061d-4774-a04f-a7b2e732e51d;"><g id="XMLID_6_">
	<g class="ldl-layer"><g class="ldl-ani"><path d="M225.248,109.137c-10.821-10.935-31.646-20.875-77.391-20.875
		c-44.107,0-66.57,9.775-77.554,20.875C60.3,119.243,54.89,131.834,54.89,150.556s5.411,31.147,15.412,41.253
		c10.821,10.935,32.629,21.041,77.555,21.041s66.57-9.94,77.391-20.875c10.003-10.106,15.413-22.697,15.413-41.419
		C240.661,131.669,235.25,119.243,225.248,109.137z M147.856,186.153c-29.308,0-44.452-6.064-50.965-12.619
		c-5.048-5.08-8.63-11.636-8.63-24.09c0-12.454,3.094-19.174,8.466-24.582c6.677-6.719,21.82-12.127,51.128-12.127
		s43.963,5.572,50.802,12.454c5.374,5.409,8.63,11.8,8.63,24.255c0,12.454-3.094,19.174-8.466,24.582
		C191.983,180.909,177.166,186.153,147.856,186.153z" class="st1" id="XMLID_28_" style="fill: rgb(1, 1, 1);"></path></g></g>
</g></g></g>
</g></g><style id="bounce-c2b4d70e-061d-4774-a04f-a7b2e732e51d" data-anikit="">@keyframes bounce-c2b4d70e-061d-4774-a04f-a7b2e732e51d
{
  0% {
    animation-timing-function: cubic-bezier(0.1361,0.2514,0.2175,0.8786);
    transform: translate(0,0px) scaleY(1);
  }
  37% {
    animation-timing-function: cubic-bezier(0.7674,0.1844,0.8382,0.7157);
    transform: translate(0,-39.96px) scaleY(1);
  }
  72% {
    animation-timing-function: cubic-bezier(0.157,0.3005,0.3078,0.9357);
    transform: translate(0,0px) scaleY(1);
  }
  87% {
    animation-timing-function: cubic-bezier(0.6498,0.2053,0.8021,0.6653);
    transform: translate(0,36.315000000000005px) scaleY(0.731);
  }
  100% {
    transform: translate(0,0px) scaleY(1);
  }
}</style><!-- [ldio] generated by https://loading.io/ --></svg>