<?xml version="1.0" encoding="utf-8"?>
<!-- Generator: Adobe Illustrator 21.0.0, SVG Export Plug-In . SVG Version: 6.00 Build 0)  -->
<svg version="1.1" id="Layer_1" xmlns="http://www.w3.org/2000/svg" xmlns:xlink="http://www.w3.org/1999/xlink" x="0px" y="0px"
	 viewBox="0 0 300 300" style="enable-background:new 0 0 300 300;" xml:space="preserve">
<style type="text/css">
	.st0{fill:#C42026;}
	.st1{fill:#010101;}
</style>
<g id="XMLID_13_">
	<polygon id="XMLID_16_" class="st0" points="274.033,12.618 241.081,12.618 25.967,287.382 59.416,287.382 	"/>
</g>
<g id="XMLID_6_">
	<path id="XMLID_28_" class="st1" d="M225.248,109.137c-10.821-10.935-31.646-20.875-77.391-20.875
		c-44.107,0-66.57,9.775-77.554,20.875C60.3,119.243,54.89,131.834,54.89,150.556s5.411,31.147,15.412,41.253
		c10.821,10.935,32.629,21.041,77.555,21.041s66.57-9.94,77.391-20.875c10.003-10.106,15.413-22.697,15.413-41.419
		C240.661,131.669,235.25,119.243,225.248,109.137z M147.856,186.153c-29.308,0-44.452-6.064-50.965-12.619
		c-5.048-5.08-8.63-11.636-8.63-24.09c0-12.454,3.094-19.174,8.466-24.582c6.677-6.719,21.82-12.127,51.128-12.127
		s43.963,5.572,50.802,12.454c5.374,5.409,8.63,11.8,8.63,24.255c0,12.454-3.094,19.174-8.466,24.582
		C191.983,180.909,177.166,186.153,147.856,186.153z"/>
</g>
</svg>
