<?xml version="1.0" encoding="utf-8"?>
<svg viewBox="0 0 1052.13 1032.14" xmlns:xlink="http://www.w3.org/1999/xlink" xmlns="http://www.w3.org/2000/svg" style="height: 100%; width: 100%; background: none; shape-rendering: auto;" width="197px" height="197px"><g class="ldl-scale" style="transform-origin: 50% 50%; transform: rotate(0deg) scale(0.7, 0.7);"><g class="ldl-ani" style="transform-origin: 526.065px 516.07px; transform: matrix(1, 0, 0, 1, 0, 0); animation: 1.11111s linear 0s infinite normal forwards running bounce-5179a970-4e90-4ad4-b572-3f0aa0c1038d;"><defs><style>.cls-1{fill:none;}.cls-2{fill:#d1bb7e;}.cls-3{fill:#786c4a;}.cls-4{fill:#f4e8a1;}.cls-5{fill:#f6e174;}.cls-6{fill:#dfb175;}.cls-7{fill:#303518;}.cls-8{fill:#fff;stroke:#303518;stroke-miterlimit:10;stroke-width:5.5px;}.cls-9{fill:#da8662;}.cls-10{clip-path:url(#clip-path);}</style><clipPath transform="translate(-216.61)" id="clip-path"><rect transform="translate(-330.52 297.84) rotate(-28.53)" height="658.22" width="599.52" y="469.89" x="120.78" class="cls-1"></rect></clipPath></defs><g class="ldl-layer"><g class="ldl-ani"><g data-name="圖層 2" id="圖層_2"><g class="ldl-layer"><g class="ldl-ani"><g data-name="圖層 1" id="圖層_1-2"><g class="ldl-layer"><g class="ldl-ani"><path transform="translate(-216.61)" d="M1260.1,154.1c-17.09,16.42-79.61-20.93-119.31-62.26s-41.54-71-24.44-87.41,74,15.13,113.74,56.46S1277.2,137.68,1260.1,154.1Z" class="cls-2" style="fill: rgb(209, 187, 126);"></path></g></g><g class="ldl-layer"><g class="ldl-ani"><path transform="translate(-216.61)" d="M366.67,1026.47,1260.1,154.1c-17.09,16.42-79.61-20.93-119.31-62.26s-41.54-71-24.44-87.41L224.78,893.53c-6.67,6.41-9.31,14.88-7.72,25.26L1054.27,97.43l-830.77,840a123.26,123.26,0,0,0,9.13,15l799-784L242.88,965.86q5.79,6.93,12.9,14.39l778.48-764L267.33,991.49C305.37,1025.74,351.07,1041.45,366.67,1026.47Z" class="cls-3" style="fill: rgb(120, 108, 74);"></path></g></g><g class="ldl-layer"><g class="ldl-ani"><path transform="translate(-216.61)" d="M217.06,918.79a63.19,63.19,0,0,0,6.44,18.68l830.77-840Z" class="cls-2" style="fill: rgb(209, 187, 126);"></path></g></g><g class="ldl-layer"><g class="ldl-ani"><path transform="translate(-216.61)" d="M232.63,952.51q4.49,6.42,10.25,13.35l788.71-797.39Z" class="cls-2" style="fill: rgb(209, 187, 126);"></path></g></g><g class="ldl-layer"><g class="ldl-ani"><path transform="translate(-216.61)" d="M255.78,980.25l.82.86c3.48,3.63,7.08,7.09,10.73,10.38L1034.26,216.2Z" class="cls-2" style="fill: rgb(209, 187, 126);"></path></g></g><g class="ldl-layer"><g class="ldl-ani"><path transform="translate(-216.61)" d="M506.07,540a33.07,33.07,0,0,0,54.47,37.53C594.74,527.86,665,416.87,688.16,313.36a275.88,275.88,0,0,0-99.14,20C577.77,383,552.9,470.35,506.07,540Z" class="cls-4" style="fill: rgb(244, 232, 161);"></path></g></g><g class="ldl-layer"><g class="ldl-ani"><path transform="translate(-216.61)" d="M632.93,479.49A33.07,33.07,0,0,0,687.39,517c26.05-37.82,73.06-111.23,104.21-189.81-24.27-7.84-52.75-12.73-86.06-13.74C691.68,362.66,668.72,426.26,632.93,479.49Z" class="cls-4" style="fill: rgb(244, 232, 161);"></path></g></g><g class="ldl-layer"><g class="ldl-ani"><path transform="translate(-216.61)" d="M851.29,735.79c-45,3.18-148.85,6.16-238.5-23.69a33.17,33.17,0,0,0-42.1,20.69h0a33,33,0,0,0,20.49,41.81A1133.16,1133.16,0,0,0,725.49,812C780.37,802.09,821.4,773.59,851.29,735.79Z" class="cls-4" style="fill: rgb(244, 232, 161);"></path></g></g><g class="ldl-layer"><g class="ldl-ani"><path transform="translate(-216.61)" d="M725.49,812a246.31,246.31,0,0,1-43.85,3.83c-243.53,0-332.62-220.5-357.45-284.23a24.4,24.4,0,0,0-47.1,10.11c13.25,222.9,198.22,399.57,424.45,399.57,235.86,0,426.87-192,425.2-428.27C1125.09,278.53,927.47,86.34,693,90.94A423.6,423.6,0,0,0,414.69,202.18C382.05,232,362.1,273.63,361,317.85c0,1.65-.06,3.33-.06,5,0,61-8.93,72.19-15.63,89.3s-8.26,56.14,36.47,35.72C461.62,411.46,519.06,361,589,333.32a275.88,275.88,0,0,1,99.14-20c1.52,0,3-.1,4.53-.1,4.37,0,8.64.09,12.85.21,33.31,1,61.79,5.9,86.06,13.74,100.71,32.57,128.9,116,128.9,182.63a441.71,441.71,0,0,1-14.17,110.38c-8.93,34-22.45,67.47-41.61,96.85q-6.3,9.67-13.43,18.72C821.4,773.59,780.37,802.09,725.49,812Z" class="cls-5" style="fill: rgb(246, 225, 116);"></path></g></g><g class="ldl-layer"><g class="ldl-ani"><path transform="translate(-216.61)" d="M898.9,743.85C1072.1,570.65,954,313.36,791.6,284.57c-141.94-25.16-227.36,56.35-227.36,56.35l-.76,3.68c8.36-4.07,16.85-7.85,25.54-11.28a275.88,275.88,0,0,1,99.14-20c1.52,0,3-.1,4.53-.1,4.37,0,8.64.09,12.85.21,33.31,1,61.79,5.9,86.06,13.74,100.71,32.57,128.9,116,128.9,182.63a441.71,441.71,0,0,1-14.17,110.38c-8.93,34-22.45,67.47-41.61,96.85q-6.3,9.67-13.43,18.72c-29.89,37.8-70.92,66.3-125.8,76.21a246.31,246.31,0,0,1-43.85,3.83c-85.06,0-151.25-26.91-202.47-64.64h0S704.57,938.18,898.9,743.85Z" class="cls-6" style="fill: rgb(223, 177, 117);"></path></g></g><g class="ldl-layer"><g class="ldl-ani"><path transform="translate(-216.61)" d="M491.51,236.22c6.14,13.59,15.82,35-8.78,46.1-19.55,8.84-34.27-10.26-40.42-23.85a27,27,0,0,1,49.2-22.25Z" class="cls-7" style="fill: rgb(48, 53, 24);"></path></g></g><g class="ldl-layer"><g class="ldl-ani"><path transform="translate(-216.61)" d="M553.66,152.44l3.65-4.38a12.62,12.62,0,0,1,15.41-3.21c11,5.63,27.64,18.94,28.31,48.21.81,35.67-28,43-38.86,54.17a4.92,4.92,0,0,1-8.47-2.91,18.6,18.6,0,0,1,3.83-12.85c9.08-12.23,19.34-17.36,12.24-39.46a74.12,74.12,0,0,0-15.87-27.45A9.21,9.21,0,0,1,553.66,152.44Z" class="cls-4" style="fill: rgb(244, 232, 161);"></path></g></g><g class="ldl-layer"><g class="ldl-ani"><path transform="translate(-216.61)" d="M476.57,234c2.23,4.93,5.74,12.69-3.18,16.72C466.3,253.9,461,247,458.72,242A9.79,9.79,0,0,1,476.57,234Z" class="cls-8" style="fill: rgb(255, 255, 255); stroke: rgb(48, 53, 24);"></path></g></g><g class="ldl-layer"><g class="ldl-ani"><path transform="translate(-216.61)" d="M388.16,386.21c5.65-2.85,14.09-7.53,26.41-15.14A10.64,10.64,0,0,1,430.63,378c2.61,13.27,3,31.73-12.94,37.57-15.62,5.73-26.9-4.6-33.38-13.65A10.63,10.63,0,0,1,388.16,386.21Z" class="cls-9" style="fill: rgb(218, 134, 98);"></path></g></g><g class="ldl-layer"><g class="ldl-ani"><path transform="translate(-216.61)" d="M710.69,96.5s29.57,10.16,34.21,34.62c-8.27,26.06-57.54,21.17-57.54,21.17s30.81,3.07,49.65-21.51C735.46,111.54,710.69,96.5,710.69,96.5Z" class="cls-2" style="fill: rgb(209, 187, 126);"></path></g></g><g class="ldl-layer"><g class="ldl-ani"><path transform="translate(-216.61)" d="M824.6,129.7s29.56,10.16,34.2,34.62c-8.27,26.06-57.54,21.17-57.54,21.17s30.82,3.07,49.65-21.5C849.37,144.74,824.6,129.7,824.6,129.7Z" class="cls-2" style="fill: rgb(209, 187, 126);"></path></g></g><g class="ldl-layer"><g class="ldl-ani"><path transform="translate(-216.61)" d="M806.87,184s29.57,10.17,34.21,34.63c-8.27,26-57.54,21.17-57.54,21.17s30.81,3.06,49.65-21.51C831.64,199,806.87,184,806.87,184Z" class="cls-2" style="fill: rgb(209, 187, 126);"></path></g></g><g class="ldl-layer"><g class="ldl-ani"><path transform="translate(-216.61)" d="M870.27,172.75s29.57,10.16,34.21,34.62c-8.27,26.06-57.54,21.17-57.54,21.17s30.82,3.07,49.65-21.51C895,187.79,870.27,172.75,870.27,172.75Z" class="cls-2" style="fill: rgb(209, 187, 126);"></path></g></g><g class="ldl-layer"><g class="ldl-ani"><path transform="translate(-216.61)" d="M704.78,156.42s29.57,10.17,34.2,34.63c-8.27,26-57.53,21.17-57.53,21.17s32.5.37,49.65-21.51C729.55,171.47,704.78,156.42,704.78,156.42Z" class="cls-2" style="fill: rgb(209, 187, 126);"></path></g></g><g class="ldl-layer"><g class="ldl-ani"><path transform="translate(-216.61)" d="M761,149.14s29.56,10.17,34.2,34.63c-8.27,26-57.54,21.17-57.54,21.17s32.51.37,49.65-21.51C785.72,164.19,761,149.14,761,149.14Z" class="cls-2" style="fill: rgb(209, 187, 126);"></path></g></g><g class="ldl-layer"><g class="ldl-ani"><path transform="translate(-216.61)" d="M684.46,219.11s29.56,10.17,34.2,34.63c-8.27,26.05-57.54,21.17-57.54,21.17s31.25,3.1,49.65-21.51C709.23,234.15,684.46,219.11,684.46,219.11Z" class="cls-2" style="fill: rgb(209, 187, 126);"></path></g></g><g class="ldl-layer"><g class="ldl-ani"><path transform="translate(-216.61)" d="M742.16,206.66s29.56,10.16,34.2,34.62c-8.27,26.06-57.54,21.17-57.54,21.17s31.25,3.11,49.65-21.51C766.93,221.7,742.16,206.66,742.16,206.66Z" class="cls-2" style="fill: rgb(209, 187, 126);"></path></g></g><g class="ldl-layer"><g class="ldl-ani"><path transform="translate(-216.61)" d="M966.92,751.68s-20.13,14.58-41.07,5.05c-16.85-19,7.31-49.52,7.31-49.52s-15.12,19.08-3.79,44.41C945,760.52,966.92,751.68,966.92,751.68Z" class="cls-2" style="fill: rgb(209, 187, 126);"></path></g></g><g class="ldl-layer"><g class="ldl-ani"><path transform="translate(-216.61)" d="M1005.07,790.72S985,805.3,964,795.77c-16.85-19,7.3-49.52,7.3-49.52s-15.11,19.08-3.78,44.41C983.14,799.56,1005.07,790.72,1005.07,790.72Z" class="cls-2" style="fill: rgb(209, 187, 126);"></path></g></g><g class="ldl-layer"><g class="ldl-ani"><path transform="translate(-216.61)" d="M952.42,805.27s-20.12,14.57-41.06,5.05c-16.85-19,7.3-49.52,7.3-49.52s-15.11,19.08-3.78,44.41C930.48,814.11,952.42,805.27,952.42,805.27Z" class="cls-2" style="fill: rgb(209, 187, 126);"></path></g></g><g class="ldl-layer"><g class="ldl-ani"><path transform="translate(-216.61)" d="M945.35,855.66s-18.83,13.64-38.43,4.73C891.15,842.6,913.76,814,913.76,814s-14.15,17.86-3.55,41.56C924.82,863.93,945.35,855.66,945.35,855.66Z" class="cls-2" style="fill: rgb(209, 187, 126);"></path></g></g><g class="ldl-layer"><g class="ldl-ani"><path transform="translate(-216.61)" d="M910.71,819.48s-18.84,13.64-38.44,4.73c-15.77-17.79,6.84-46.35,6.84-46.35s-14.15,17.86-3.54,41.56C890.18,827.76,910.71,819.48,910.71,819.48Z" class="cls-2" style="fill: rgb(209, 187, 126);"></path></g></g><g class="ldl-layer"><g class="ldl-ani"><path transform="translate(-216.61)" d="M886.59,859s-15.72,11.39-32.08,3.95c-13.17-14.85,5.71-38.69,5.71-38.69a34.76,34.76,0,0,0-3,34.69C869.46,865.86,886.59,859,886.59,859Z" class="cls-2" style="fill: rgb(209, 187, 126);"></path></g></g><g class="ldl-layer"><g class="ldl-ani"><path transform="translate(-216.61)" d="M342.39,673.22S339.47,652,355.2,640c21.27-5.1,34.67,25.62,34.67,25.62a38.31,38.31,0,0,0-32.21-20.87C344.57,653,342.39,673.22,342.39,673.22Z" class="cls-2" style="fill: rgb(209, 187, 126);"></path></g></g><g class="ldl-layer"><g class="ldl-ani"><path transform="translate(-216.61)" d="M302.4,656.31s-2.92-21.2,12.81-33.25c21.27-5.1,34.67,25.62,34.67,25.62a38.31,38.31,0,0,0-32.21-20.87C304.57,636.06,302.4,656.31,302.4,656.31Z" class="cls-2" style="fill: rgb(209, 187, 126);"></path></g></g><g class="ldl-layer"><g class="ldl-ani"><path transform="translate(-216.61)" d="M317.28,622.49s-2.38-17.29,10.44-27.12c17.34-4.16,28.27,20.89,28.27,20.89a31.24,31.24,0,0,0-26.26-17C319.05,606,317.28,622.49,317.28,622.49Z" class="cls-2" style="fill: rgb(209, 187, 126);"></path></g></g><g class="ldl-layer"><g class="ldl-ani"><path transform="translate(-216.61)" d="M290.78,605.6s-2.38-17.29,10.44-27.12c17.34-4.16,28.27,20.9,28.27,20.9a31.24,31.24,0,0,0-26.26-17C292.55,589.08,290.78,605.6,290.78,605.6Z" class="cls-2" style="fill: rgb(209, 187, 126);"></path></g></g><g class="ldl-layer"><g class="ldl-ani"><path transform="translate(-216.61)" d="M290.78,573.54s-2.38-17.28,10.44-27.11c17.34-4.16,28.27,20.89,28.27,20.89a31.26,31.26,0,0,0-26.26-17C292.55,557,290.78,573.54,290.78,573.54Z" class="cls-2" style="fill: rgb(209, 187, 126);"></path></g></g><g class="ldl-layer"><g class="ldl-ani"><g class="cls-10"><g class="ldl-layer"><g class="ldl-ani"><path transform="translate(-216.61)" d="M1260.1,154.1c-17.09,16.42-79.61-20.93-119.31-62.26s-41.54-71-24.44-87.41,74,15.13,113.74,56.46S1277.2,137.68,1260.1,154.1Z" class="cls-2" style="fill: rgb(209, 187, 126);"></path></g></g><g class="ldl-layer"><g class="ldl-ani"><path transform="translate(-216.61)" d="M366.67,1026.47,1260.1,154.1c-17.09,16.42-79.61-20.93-119.31-62.26s-41.54-71-24.44-87.41L224.78,893.53c-6.67,6.41-9.31,14.88-7.72,25.26L1054.27,97.43l-830.77,840a123.26,123.26,0,0,0,9.13,15l799-784L242.88,965.86q5.79,6.93,12.9,14.39l778.48-764L267.33,991.49C305.37,1025.74,351.07,1041.45,366.67,1026.47Z" class="cls-3" style="fill: rgb(120, 108, 74);"></path></g></g><g class="ldl-layer"><g class="ldl-ani"><path transform="translate(-216.61)" d="M217.06,918.79a63.19,63.19,0,0,0,6.44,18.68l830.77-840Z" class="cls-2" style="fill: rgb(209, 187, 126);"></path></g></g><g class="ldl-layer"><g class="ldl-ani"><path transform="translate(-216.61)" d="M232.63,952.51q4.49,6.42,10.25,13.35l788.71-797.39Z" class="cls-2" style="fill: rgb(209, 187, 126);"></path></g></g><g class="ldl-layer"><g class="ldl-ani"><path transform="translate(-216.61)" d="M255.78,980.25l.82.86c3.48,3.63,7.08,7.09,10.73,10.38L1034.26,216.2Z" class="cls-2" style="fill: rgb(209, 187, 126);"></path></g></g></g></g></g><g class="ldl-layer"><g class="ldl-ani"><path transform="translate(-216.61)" d="M683.36,650.81a33.07,33.07,0,0,0-5.76,65.89c40.41,3.52,113,7.54,187.12.37,19.16-29.38,32.68-62.84,41.61-96.85C858.12,635,768.37,657.25,683.36,650.81Z" class="cls-4" style="fill: rgb(244, 232, 161);"></path></g></g></g></g></g></g></g></g></g></g><style id="bounce-5179a970-4e90-4ad4-b572-3f0aa0c1038d" data-anikit="">@keyframes bounce-5179a970-4e90-4ad4-b572-3f0aa0c1038d
{
  0% {
    animation-timing-function: cubic-bezier(0.1361,0.2514,0.2175,0.8786);
    transform: translate(0,0px) scaleY(1);
  }
  37% {
    animation-timing-function: cubic-bezier(0.7674,0.1844,0.8382,0.7157);
    transform: translate(0,-169.83px) scaleY(1);
  }
  72% {
    animation-timing-function: cubic-bezier(0.1981,0.3825,0.3952,0.952);
    transform: translate(0,0px) scaleY(1);
  }
  87% {
    animation-timing-function: cubic-bezier(0.5778,0.1834,0.7751,0.6191);
    transform: translate(0,94.49999999999997px) scaleY(0.811);
  }
  100% {
    transform: translate(0,0px) scaleY(1);
  }
}</style><!-- [ldio] generated by https://loading.io/ --></svg>