<svg xmlns="http://www.w3.org/2000/svg" viewBox="0 0 1010.24 201.17"><defs><style>.cls-1{fill:#f5e174;}.cls-2{fill:#786c4a;}</style></defs><g id="圖層_2" data-name="圖層 2"><g id="圖層_1-2" data-name="圖層 1"><path class="cls-1" d="M679.32,200.78c-4.48-7.23-8.38-18.56-10.49-29.76a81.8,81.8,0,0,1-11.33,29.76l-2.75-3.32c6.91-10.82,11.52-26.12,11.52-41.41V143.89h3.84v12.16c.13,13.95,6.27,31.23,12.16,41.73Zm-46.89-28.6h11.2v-8.07h-11.2Zm0,11.9h11.2v-8.32h-11.2Zm17-33.54v3.59H634.73c-.51,2.11-1.15,4.29-1.85,6.4h14.46v32.32c0,6.65-2.82,9.6-9.6,7l-.19-4.54c5.31,2.94,6.08,3.07,6.08-3.71v-3.91h-11.2v13.19h-3.65V169.42a45.56,45.56,0,0,1-4.29,10.31l-2.81-4.1a73.15,73.15,0,0,0,9.4-21.5h-7.93v-3.59H632a62.33,62.33,0,0,0,1.21-7v-.06l3.33,1.15a53.11,53.11,0,0,1-1,5.95Zm-52.66,46.92a28.92,28.92,0,0,0,7.81-6.15c-3.07-4.93-4.09-10.11-4.8-14.21l3.46-1.79a30.46,30.46,0,0,0,3.77,12.8,32.07,32.07,0,0,0,4.55-15H598.46v-3.58h16.7v3.58c-.38,5.19-1.53,12-5.82,18.31a27.26,27.26,0,0,0,7.61,6l-2,3.39a27.91,27.91,0,0,1-7.94-6.33,31.7,31.7,0,0,1-7.81,6.4Zm-6.33-51.84,2.75-2.37a63.1,63.1,0,0,1,3.46,9.53l-3.27,2.76A51.54,51.54,0,0,0,590.46,145.62Zm0,14.27,2.75-2.37a62.85,62.85,0,0,1,3.46,9.54l-3.27,2.75A51.54,51.54,0,0,0,590.46,159.89Zm-1.09,38.65a178,178,0,0,0,4.54-25.28l3.59,1.54a214.4,214.4,0,0,1-4.61,26.11ZM604,151.76a140.89,140.89,0,0,1-2.69,16.38l-3.52-2.36a112.37,112.37,0,0,0,3.13-22.6l3.65,1.28c-.06,1.09-.13,2.31-.25,3.72H615v11.39c0,6.65-2.37,9.79-9.15,7.17l-.13-4.36c4.74,2.63,5.57,3.08,5.57-3.9v-6.72Zm-39,1.54h10.88v-5.25H565Zm0,8.83h10.88v-5.38H565Zm-7.68,10.75V169.3h26.24v3.58H573.13v7.68H581v3.58h-7.87v11.4a10.14,10.14,0,0,0,2.81.44h8.26l-1.28,3.59h-7.17c-6.52,0-10.24-4.8-12.22-10.37a86.89,86.89,0,0,1-2.82,11.71l-3.33-2.49c2.5-7.11,4.1-17.67,4.49-23l3.32,1.28c-.19,1.73-.38,4-.76,6.53.76,2.88,2.3,7,5,9.79V172.88Zm4-28.42h18.3v21.25h-18.3ZM545,145.94l2.5-2.05a70.46,70.46,0,0,1,3.14,9.66l-2.88,2.11A59.9,59.9,0,0,0,545,145.94Zm-8.7,52c3.14-9.92,4.16-28.54,4.35-38.08h-2.88v-3.45h2.88V143.25h3.59v13.12h7.29v3.45h-7.29c0,1.54-.07,3.65-.2,6.21h3.2v30.66c0,.57.26.83.58.83s.58-.26.58-.83v-8.58h3.2V197a3.84,3.84,0,0,1-7.68,0V168.4c-.52,9.73-1.8,23.68-4.55,32.45Zm-2.43-21.37,2.43-2a103.44,103.44,0,0,1,1.79,12.74l-2.81,2.11A82.56,82.56,0,0,0,533.85,176.53Zm-5.12-7.62h4.73v-9.85h-4.73Zm-4.16,28.93c4.16-1.79,5-4.54,5-8.7V172.37h-4.35V155.6h11.65v16.77h-3.71v18a11.17,11.17,0,0,1-7,10.75Zm-.07-7.17A137.13,137.13,0,0,0,526.36,175l2.62,1.54a139.72,139.72,0,0,1-1.72,15.87Zm8.32-41.85h5.06v3.58H524.31v-3.58h5.06v-5.57h3.45Zm-19.25,22.84,2.95-1.92A116.58,116.58,0,0,1,519.14,187l-3.32,2.18A136.56,136.56,0,0,0,513.57,171.66ZM501.1,186.83A127.38,127.38,0,0,0,503.53,170l3.2,1.54a147.29,147.29,0,0,1-2.37,17.53Zm-9.67-17.28a146.19,146.19,0,0,0,6.14-26.3l3.2,1.34c-.32,2.31-.7,4.93-1.21,7.87v48.39H496.1V164.56a71.45,71.45,0,0,1-2.3,10.18Zm24.45-15.87H512.1v39.1c0,6.85-2.75,9.54-9.21,7.17l.19-4.16c4.41,2.31,5.44,2.05,5.44-3.9V153.68h-2c-.77,4.8-1.79,9.92-2.94,14.46l-3.27-2a143.1,143.1,0,0,0,4.35-23.23l3.27,1.09c-.19,1.85-.51,4-.83,6.2h12v3.46A81.93,81.93,0,0,1,517.35,166l-3.2-1.53A57.38,57.38,0,0,0,515.88,153.68Zm-34,23.68,2.62-2.18c.7,4.36,1.6,12.36,1.86,17.8l-3,2.62A156.12,156.12,0,0,0,481.85,177.36Zm-5.7-6,2.37-2a101.77,101.77,0,0,1,3.07,12.42l-2.94,2.3A100.82,100.82,0,0,0,476.15,171.34Zm-3.14,25V174.1h3.46v22a1.34,1.34,0,0,0,1.28,1.34,1.19,1.19,0,0,0,1.28-1.34v-9.92h3.2v10.24a4.34,4.34,0,0,1-4.48,4.48A4.6,4.6,0,0,1,473,196.37Zm-3.64-41.09,1.79-3.2a47.61,47.61,0,0,1,3.45,3.9,50.76,50.76,0,0,0,.32-7.93h-4.6v-3.46h15.29v16.9c0,6.65-2.05,10.11-8.32,7l.45-4.41c4.35,3.26,4.42,2.62,4.42-3.71V148.05h-3.84c-.13,11.2-1.48,16.45-6.08,22.91l-2.69-3a22.85,22.85,0,0,0,4.29-8.13A35.07,35.07,0,0,0,469.37,155.28Zm-.84,37.95a172.89,172.89,0,0,0,1.09-17.53l2.5,1.4c.06,4.48-.19,10.56-.83,18.44ZM462.65,196h2.43V178.19h-2.43Zm-2.95-35.13v-3.59H468v3.59Zm0,9.09v-3.59H468v3.59Zm-.13,29.63v-25h8.58v25Zm6.08-50.82H469v3.59H458.74v-3.59h3.33v-5.57h3.58Zm-20.21,5.63,3.46-1c-.19,3.39-.19,7-.06,10.5.89-2.31,1.72-4.93,2.3-6.92L454,160a69,69,0,0,1-4.8,10c.64,7.68,2,15,4.29,20.29l-3.14,2.88C446.28,183.57,445.25,166.54,445.44,154.38Zm-19.2,35.46a96.12,96.12,0,0,0,4.55-29.76h-4.35v-3.46h7.93c-.25,16.64-1.79,25.67-5,36Zm19.14-14.4h-3.52v7.94h4.93v3.45h-4.93v6c0,6.65-2,9.6-8.77,7l.26-4.22c4.29,2.62,4.8,2.88,4.8-4.16v-4.61h-5v-3.45h5v-7.94h-3.59V172h3.59v-7.29H435.2v-3.46h2.95v-6.08a45.3,45.3,0,0,0,6.46-7H431.68v-3.58h17.48v3.13a45,45,0,0,1-7.3,8.77v4.8h2.88v3.46h-2.88V172h3.52ZM417.24,195v-8h3.84v8a5.89,5.89,0,0,1-11.78,0V172h-4.8c-.26,11.46-1.34,21-8.45,29l-2.88-2.88c6.59-7.75,7.36-16.39,7.62-26.12H394.2V168.4h11.26v-12h-6A89.2,89.2,0,0,1,397,166l-3.33-2.88a90.26,90.26,0,0,0,3.9-17.28l3.46,1.47c-.19,1.73-.45,3.58-.83,5.5h5.31v-9.53h3.84v9.53h8.51v3.59H409.3v12h11.26V172H413v23a2.12,2.12,0,1,0,4.23,0Zm-39.41-3.84h2.36V171.66h-2.36ZM374.11,159v-3.33h3.33v-6h3.07v6h3.33V159h-3.33v9.35h2.63v26.11h-8.26V168.34h2.56V159Zm-.63,37.12h11V148h-11Zm-3.33,3.46v-55h17.66v55Zm-.39-55c-.25,2.56-.57,5.57-1.15,9.09v47.17h-3.46V165.78a66.76,66.76,0,0,1-2,10.24l-2.37-5.19c3.45-9.92,5.12-21.44,5.82-27.58ZM343,187.79h7.55V177.17H343Zm-3.39-28v-3.58h14.34v3.58Zm0,8.58v-3.59h14.34v3.59Zm-.06,23v-17.8H354v17.8ZM330,146.26l2.24-2.76a49.4,49.4,0,0,1,4.48,8.64l-2.69,3A61.64,61.64,0,0,0,330,146.26Zm-.13,12.22,2.11-2.75a48.88,48.88,0,0,1,4.87,8.51l-2.56,3C332.79,164.11,330.93,160.46,329.84,158.48Zm-1.53,14.14v-3.45h7.1v18.94c1.41,3.33,4.74,7.75,10.18,7.75h10.24l-1.28,3.71h-9.67c-4.29,0-7.93-3.14-10.05-6.15a20,20,0,0,1-3.71,7.43l-2.75-3.52c3.39-3.91,3.46-6.53,3.46-10.69v-14Zm20.28-29.37V148h7.3v3.59h-18.3V148h7.29v-4.73Zm-32.11,14.21a155.6,155.6,0,0,0,1.09,20.67c.57-5.76.83-12.8.83-22.15h-1.6A14.24,14.24,0,0,1,316.48,157.46Zm-5.69,11.13a165.47,165.47,0,0,0,5.11-25.41l3,1.8c-.32,2.24-.77,4.73-1.28,7.55h5.63V156h-2.05c.13,14.4-.13,23.49-1.92,31.56a40,40,0,0,0,3.91,10.36l-2.37,2.88a36,36,0,0,1-3-7.68,72.82,72.82,0,0,1-3,7.75L312.26,198a50.88,50.88,0,0,0,4-11.58,139.5,139.5,0,0,1-1.6-22.85,72.46,72.46,0,0,1-1.15,8.38Zm-3.46,24.83h2.56V174.54h-2.56Zm-3-35.9v-3.46H307v-10h3.2v10h2.69v3.46h-2.69v13.7h2.62v25.53h-8.45V171.22H307v-13.7Zm-.38-13.06c-.26,1.86-.58,4.1-1,6.72v49.67h-3.33V167.63c-.51,2.24-1,4.48-1.59,6.79l-2.37-4.93a190,190,0,0,0,5.24-26.31Zm-16.12,56.32c-4.48-7.23-8.38-18.56-10.49-29.76A81.8,81.8,0,0,1,266,200.78l-2.75-3.32c6.91-10.82,11.52-26.12,11.52-41.41V143.89h3.84v12.16c.13,13.95,6.27,31.23,12.16,41.73Zm-46.89-28.6h11.2v-8.07h-11.2Zm0,11.9h11.2v-8.32h-11.2Zm17-33.54v3.59H243.23c-.51,2.11-1.15,4.29-1.85,6.4h14.46v32.32c0,6.65-2.82,9.6-9.6,7l-.19-4.54c5.31,2.94,6.08,3.07,6.08-3.71v-3.91h-11.2v13.19h-3.65V169.42A45.56,45.56,0,0,1,233,179.73l-2.82-4.1a72.91,72.91,0,0,0,9.41-21.5h-7.93v-3.59h8.83a67.34,67.34,0,0,0,1.22-7v-.06l3.32,1.15a53.11,53.11,0,0,1-1,5.95Zm-52.66,46.92a28.92,28.92,0,0,0,7.81-6.15c-3.07-4.93-4.09-10.11-4.8-14.21l3.46-1.79a30.46,30.46,0,0,0,3.77,12.8,32.07,32.07,0,0,0,4.55-15H207v-3.58h16.7v3.58c-.38,5.19-1.53,12-5.82,18.31a27.26,27.26,0,0,0,7.61,6l-2,3.39a27.91,27.91,0,0,1-7.94-6.33,31.7,31.7,0,0,1-7.81,6.4ZM199,145.62l2.75-2.37a63.1,63.1,0,0,1,3.46,9.53l-3.27,2.76A51.54,51.54,0,0,0,199,145.62Zm0,14.27,2.75-2.37a62.85,62.85,0,0,1,3.46,9.54l-3.27,2.75A51.54,51.54,0,0,0,199,159.89Zm-1.09,38.65a178,178,0,0,0,4.54-25.28L206,174.8a214.4,214.4,0,0,1-4.61,26.11Zm14.66-46.78a140.89,140.89,0,0,1-2.69,16.38l-3.52-2.36a112.37,112.37,0,0,0,3.13-22.6l3.65,1.28c-.06,1.09-.13,2.31-.25,3.72h10.62v11.39c0,6.65-2.37,9.79-9.15,7.17l-.13-4.36c4.74,2.63,5.57,3.08,5.57-3.9v-6.72Zm-23.67,16.9v-8h2.31v7.87c0,.77.19,1.09,1,1.09h.51l-.64,2.43h-.38C189.76,172.05,188.86,170.58,188.86,168.66Zm-6.78-9.28v-3.33h3.45V152h2.56v4.1h3.46v3.33h-3.46v13.37h-2.56V159.38Zm-.71,11.45c1.15-3.26,1.15-6.46,1.09-10.17h2.3c0,5.37-.19,8.7-1.47,12.22Zm-2.69-2.05v-8.12h2.18v8.12Zm-6.91-9.4v-3.33h3.46V152h2.69v4.1h3.45v3.33h-3.45v13.37h-2.69V159.38Zm-.13,11.84a48.69,48.69,0,0,0,.77-10.56h2.24a69,69,0,0,1-.89,12.67Zm-1.4,24.83c1.4-.07,2.75-.13,4.09-.26a110.63,110.63,0,0,0,6.79-10.3,64.15,64.15,0,0,1-9.16,1.15l-.76-3.84c.89,0,2-.06,3.07-.13a45,45,0,0,0,5-10.94l3.08,2.05a56.3,56.3,0,0,1-4.1,8.51,36.61,36.61,0,0,0,5.06-.83,69.22,69.22,0,0,0,3.07-6.28l2.94,2.37a108,108,0,0,1-10.62,17.73,65.17,65.17,0,0,0,9-1.73,63.11,63.11,0,0,0-2.11-6.65l2.75-2.31a100.68,100.68,0,0,1,4.42,13.89l-3.26,2.37c-.26-1.35-.58-2.69-.9-4a78.57,78.57,0,0,1-17.6,2.94Zm11.45-52.87v4.68h11.14v3.45H171.26c0,28.29-.7,39-2.75,49.47l-3.39-3c2.3-11.14,2.56-22.66,2.56-49.92h10.43v-4.68Zm-49.52,26a163.3,163.3,0,0,0,6.79-26l3.32,1.34c-.38,2.24-1,5.19-1.6,8.19v48.07H137.1v-37a79.69,79.69,0,0,1-2.43,10.56Zm21-6.72h6.92v3.71h-6.92v34.63h-3.84V166.22h-6.91v-3.71h6.91V143.18h3.84Zm-33.65,31.68V181h2.69v13.18Zm-4.41,3.2V181h2.81v16.38Zm-2.69-34.3h5.7l.77-7.43H114C113.5,158.29,113,160.72,112.41,163.09ZM110.49,200V181h2.94V200Zm-1.34-25.85h11.52l.76-7.43h-10C110.75,169.23,110,171.73,109.15,174.1Zm16.12-11-1.08,11h3.26v18.75c0,6.59-2.5,9.6-9.15,7.1l.06-4.16c4.23,2.05,5.38,2.5,5.38-4.22V177.81H107.8l-1.28,3.2h2.18v19.84h-3.07V183.06c-.9,2.11-1.92,4.22-2.95,6.4l-2.94-3.72a96.43,96.43,0,0,0,10.69-30.08h-7.81v-3.58h4a34,34,0,0,0-2.24-6.59l2.5-2.24a38.18,38.18,0,0,1,2.88,7.36l-1.86,1.47h3.14c.44-2.94.83-6,1.15-9l3.33,1.15c-.32,2.75-.64,5.31-1,7.81h8.26l-1.22,11Zm-39.34-8.45h4.54v-6.53H85.93Zm0,10.5h4.54v-6.92H85.93Zm-3.71,3.58V144.53h12v44.35c0,5.82-1.8,9.73-6.85,11.84l-1.67-3.65c4.36-2,4.8-4.8,4.8-8.83V168.72ZM78.7,189.84V176h4.73v13.89Zm-3.46,3.46H86.89V172.5H75.24Zm-3.58-38.66H76.2v-6.53H71.66Zm0,10.5H76.2v-6.92H71.66Zm0,35.71H68V144.53h12v24.19H71.66ZM54,165.78h3.45v-9.67H54Zm-6.85-13.25h3.33v-4.42H47.16Zm-.06,13.25h3.45v-9.67H47.1Zm-3.84,19.39c1.34.7,3.58,2.05,6.2,3.77a22,22,0,0,0,3.91-11.26H46.52A46.73,46.73,0,0,1,43.26,185.17Zm-3.08-19.39h3.46v-9.67H40.18Zm21.64-21.25v3.58H54.07v4.42h6.85v16.83H49.08c-.38,1.41-.83,3.07-1.34,4.74H61.56v3.58H56.89a27.5,27.5,0,0,1-4.42,13.38,91.58,91.58,0,0,1,8.64,6.65l-2.43,3.14q-4.23-3.65-8.64-6.91c-3.07,3.07-7.36,5.44-13.18,6.84l-2-3.64c5.25-1,9.15-2.88,12-5.44a63.57,63.57,0,0,0-8.64-4.93,72.31,72.31,0,0,0,4.42-9.09H35.32V174.1H44a32.15,32.15,0,0,0,1.34-4.74H36.73V152.53h6.85v-4.42h-8v-3.58ZM18.89,164.3l2.69-2.75a162.56,162.56,0,0,1,8.06,20.61L26.18,185A120,120,0,0,0,18.89,164.3Zm.89-15.42a84.67,84.67,0,0,1-2.3,8.58v43.39H13.77V167.7a103.19,103.19,0,0,1-9,17.47L1.93,182a98.32,98.32,0,0,0,14.14-33.09H2.7v-3.71H28.94v3.71Z"/><path class="cls-2" d="M1001.66,103.55V92.8h8.45v10.75Zm8.58-48.89L1009,82.3h-6.27l-1.16-27.64V10.5h8.71Zm-82.15,55.42c8.71-15.87,9.35-38.78,9.35-75h22v71.3c0,1.15.51,1.79,1,1.79s1-.64,1-1.79V87.55h6.66v19.59c0,4.73-3.2,8.19-7.81,8.19-4.87,0-8.07-3.46-8.07-8.19V42.24H944.6c0,27.26-.89,55.81-10.24,73.22ZM913.24,41.47V34.56h6.4v-32h6.66v32h6.14v6.91H926.3V93.18q3.65-1.73,6.53-3.45l.13,7.55c-4.1,2.56-9.86,5.25-18.69,8.58l-.64-7.56c2-.64,4.09-1.4,6-2.17V41.47Zm39-20.86H965.6v7.17H931.55V20.61h13.31V.13h7.42Zm-66,87V.13h6.4V37.5c1.4-7.93,2.94-20.22,3.32-26.36l5.89,4.48a146.55,146.55,0,0,1-5.37,27l-3.84-4.22v6.4c2.81,6.27,7.16,19.2,9.6,27.65l-5.12,7c-1.16-7-2.95-15.75-4.48-22.27v50.56a1.15,1.15,0,0,0,2.3,0v-23h6.66v22.91a7.68,7.68,0,1,1-15.36,0ZM855.42,39.94h6.4V9.09h-6.4Zm21-4.48V.13h6.4V49.41c0,27.39-.77,47.74-10.5,65.79l-5.5-6.14a34.28,34.28,0,0,0,1.92-3.72A130.46,130.46,0,0,1,848,113.92l-1.66-7.42,2.69-.77V56.58h5.37v47.36A21.08,21.08,0,0,0,857,103V46.34h-7.68V2.69H868V46.34h-4.61V64.26h5.25v6.91h-5.25v29.44c1.8-.9,3.46-1.67,4.61-2.31l1,6.66c4.86-10.75,6.52-24.45,7.16-38.4-1.28,5.76-2.94,11.9-4.6,15.62l-4.61-6c3.45-8.19,8.19-23.94,9.47-31.36V38.27l-4.48,4a160.81,160.81,0,0,0-3.84-26.88l5.5-4.74A229.37,229.37,0,0,1,876.41,35.46ZM815.64,55.81C820.5,43,824,25.73,824.86,18.18l6.4,3.58c-.52,4-1.41,8.83-2.56,14.34a193.89,193.89,0,0,1,9,19.84l-5.38,6.4c-1.79-5.89-3.84-12-5.63-16.9-1.41,5.38-3.07,11.14-5,16.9Zm-33.28,2.56c6-13.95,10-32.64,11.14-40.19l6.27,3.58c-.51,3.71-1.41,8.58-2.69,14,2.69,4.74,6.14,11.27,8.19,15.87l-5,6.4c-1.41-4.09-3.58-9.47-5.38-13.56a199.68,199.68,0,0,1-6.78,20.48ZM832,110.08a165.17,165.17,0,0,1-18-41.34v46.59H806.3V70.4c-3.72,12.67-10.63,26.5-18.95,39.3L782,102.91c10.88-14.85,21.24-38.4,24.32-53.25V16.9H783.9V9.47h22.4V.13H814V9.47h22.4V16.9H814V49.54c3.45,15.74,13.82,39.16,23.93,53.5Zm-91.36-6.53V92.8h8.45v10.75Zm8.58-48.89L748,82.3h-6.27l-1.16-27.64V10.5h8.71Zm-82.15,55.42c8.71-15.87,9.35-38.78,9.35-75h22v71.3c0,1.15.51,1.79,1,1.79s1-.64,1-1.79V87.55h6.66v19.59c0,4.73-3.2,8.19-7.81,8.19-4.87,0-8.07-3.46-8.07-8.19V42.24H683.6c0,27.26-.89,55.81-10.24,73.22ZM652.24,41.47V34.56h6.4v-32h6.66v32h6.14v6.91H665.3V93.18q3.65-1.73,6.53-3.45l.13,7.55c-4.1,2.56-9.86,5.25-18.69,8.58l-.64-7.56c2-.64,4.09-1.4,6-2.17V41.47Zm39-20.86H704.6v7.17H670.55V20.61h13.31V.13h7.42ZM616.05,36.48h15.36V28.29H616.05Zm0,15.62h15.36V43.39H616.05Zm0,16.12h15.36V59H616.05Zm0,16.39h15.36V75.14H616.05ZM587,41.47V34.56h6.92v-32h6.65v32h5.51v6.91h-5.51V93.06a40.91,40.91,0,0,0,4.1-2.18l.51,7.17c-3.07,2-10.62,5.63-17.15,7.81l-.64-7.56a66.08,66.08,0,0,0,6.53-2.3V41.47Zm43,50.05a161.87,161.87,0,0,1,12.55,17.54l-5.25,6.27a113.68,113.68,0,0,0-12-18.31l4.22-5.5H617l4.35,5.25a109,109,0,0,1-14.08,18.69l-4.74-6.79a73.87,73.87,0,0,0,13.95-17.15H605.3V84.61h3.84V21.12h11.13v-7.3H606.71V6.91h13.56V0h6.92V6.91h13.56v6.91H627.19v7.3h11.13V84.61h3.84v6.91ZM560.27,45.18h6.91V25.86h-6.91ZM546.58,18.69h6.65V9.86h-6.65Zm-.13,26.49h6.91V25.86h-6.91ZM538.77,84c2.69,1.41,7.17,4.09,12.41,7.55,4.61-6.27,7-14,7.81-22.53H545.3C543.12,75,540.82,80.64,538.77,84Zm-6.15-38.79h6.92V25.86h-6.92ZM575.89,2.69V9.86H560.4v8.83h13.7V52.35H550.42c-.77,2.82-1.67,6.15-2.69,9.47h27.65V69H566c-.89,9.86-3.45,19-8.83,26.75a186.69,186.69,0,0,1,17.28,13.32l-4.86,6.27q-8.46-7.31-17.28-13.83c-6.15,6.15-14.72,10.88-26.37,13.7l-4-7.3c10.5-2,18.3-5.76,24.06-10.88a127.07,127.07,0,0,0-17.28-9.85A146.74,146.74,0,0,0,537.62,69H522.9V61.82h17.28a64.43,64.43,0,0,0,2.68-9.47H525.71V18.69h13.7V9.86h-16V2.69ZM479.66,103.55V92.8h8.45v10.75Zm8.58-48.89L487,82.3h-6.27l-1.16-27.64V10.5h8.71Zm-82.15,55.42c8.71-15.87,9.35-38.78,9.35-75h22v71.3c0,1.15.51,1.79,1,1.79s1-.64,1-1.79V87.55h6.66v19.59c0,4.73-3.2,8.19-7.81,8.19-4.87,0-8.07-3.46-8.07-8.19V42.24H422.6c0,27.26-.89,55.81-10.24,73.22ZM391.24,41.47V34.56h6.4v-32h6.66v32h6.14v6.91H404.3V93.18q3.65-1.73,6.53-3.45l.13,7.55c-4.1,2.56-9.86,5.25-18.69,8.58l-.64-7.56c2.05-.64,4.09-1.4,6-2.17V41.47Zm39-20.86H443.6v7.17H409.55V20.61h13.31V.13h7.42Zm-66,87V.13h6.4V37.5c1.4-7.93,2.94-20.22,3.32-26.36l5.89,4.48a146.55,146.55,0,0,1-5.37,27l-3.84-4.22v6.4c2.81,6.27,7.16,19.2,9.6,27.65l-5.12,7c-1.16-7-2.95-15.75-4.48-22.27v50.56a1.15,1.15,0,0,0,2.3,0v-23h6.66v22.91a7.68,7.68,0,1,1-15.36,0ZM333.42,39.94h6.4V9.09h-6.4Zm21-4.48V.13h6.4V49.41c0,27.39-.77,47.74-10.5,65.79l-5.5-6.14a34.28,34.28,0,0,0,1.92-3.72A130.46,130.46,0,0,1,326,113.92l-1.66-7.42,2.69-.77V56.58h5.37v47.36A21.08,21.08,0,0,0,335,103V46.34h-7.68V2.69H346V46.34h-4.61V64.26h5.25v6.91h-5.25v29.44c1.8-.9,3.46-1.67,4.61-2.31l1,6.66c4.86-10.75,6.52-24.45,7.16-38.4-1.28,5.76-2.94,11.9-4.6,15.62l-4.61-6c3.45-8.19,8.19-23.94,9.47-31.36V38.27l-4.48,4a160.81,160.81,0,0,0-3.84-26.88l5.5-4.74A229.37,229.37,0,0,1,354.41,35.46ZM293.64,55.81C298.5,43,302,25.73,302.86,18.18l6.4,3.58c-.52,4-1.41,8.83-2.56,14.34a193.89,193.89,0,0,1,9,19.84l-5.38,6.4c-1.79-5.89-3.84-12-5.63-16.9-1.41,5.38-3.07,11.14-5,16.9Zm-33.28,2.56c6-13.95,10-32.64,11.14-40.19l6.27,3.58c-.51,3.71-1.41,8.58-2.69,14,2.69,4.74,6.14,11.27,8.19,15.87l-5,6.4c-1.41-4.09-3.58-9.47-5.38-13.56a199.68,199.68,0,0,1-6.78,20.48ZM310,110.08a165.17,165.17,0,0,1-18-41.34v46.59H284.3V70.4c-3.72,12.67-10.63,26.5-18.95,39.3L260,102.91c10.88-14.85,21.24-38.4,24.32-53.25V16.9H261.9V9.47h22.4V.13H292V9.47h22.4V16.9H292V49.54c3.45,15.74,13.82,39.16,23.93,53.5Zm-91.36-6.53V92.8h8.45v10.75Zm8.58-48.89L226,82.3h-6.27l-1.16-27.64V10.5h8.71Zm-82.15,55.42c8.71-15.87,9.35-38.78,9.35-75h22v71.3c0,1.15.51,1.79,1,1.79s1-.64,1-1.79V87.55h6.66v19.59c0,4.73-3.2,8.19-7.81,8.19-4.87,0-8.07-3.46-8.07-8.19V42.24H161.6c0,27.26-.89,55.81-10.24,73.22ZM130.24,41.47V34.56h6.4v-32h6.66v32h6.14v6.91H143.3V93.18q3.64-1.73,6.53-3.45l.13,7.55c-4.1,2.56-9.86,5.25-18.69,8.58l-.64-7.56c2.05-.64,4.09-1.4,6-2.17V41.47Zm39-20.86H182.6v7.17h-34V20.61h13.31V.13h7.42ZM94.05,36.48h15.36V28.29H94.05Zm0,15.62h15.36V43.39H94.05Zm0,16.12h15.36V59H94.05Zm0,16.39h15.36V75.14H94.05ZM65,41.47V34.56h6.92v-32h6.65v32h5.51v6.91H78.56V93.06a40.91,40.91,0,0,0,4.1-2.18l.51,7.17c-3.07,2-10.62,5.63-17.15,7.81l-.64-7.56A66.08,66.08,0,0,0,71.91,96V41.47Zm43,50.05a161.87,161.87,0,0,1,12.55,17.54l-5.25,6.27a113.68,113.68,0,0,0-12-18.31l4.22-5.5H95l4.35,5.25a109,109,0,0,1-14.08,18.69l-4.74-6.79a73.87,73.87,0,0,0,14-17.15H83.3V84.61h3.84V21.12H98.27v-7.3H84.71V6.91H98.27V0h6.92V6.91h13.56v6.91H105.19v7.3h11.13V84.61h3.84v6.91ZM38.27,45.18h6.91V25.86H38.27ZM24.58,18.69h6.65V9.86H24.58Zm-.13,26.49h6.91V25.86H24.45ZM16.77,84c2.69,1.41,7.17,4.09,12.41,7.55,4.61-6.27,7-14,7.81-22.53H23.3C21.12,75,18.82,80.64,16.77,84ZM10.62,45.18h6.92V25.86H10.62ZM53.89,2.69V9.86H38.4v8.83H52.1V52.35H28.42c-.77,2.82-1.67,6.15-2.69,9.47H53.38V69H44c-.89,9.86-3.45,19-8.83,26.75a186.69,186.69,0,0,1,17.28,13.32l-4.86,6.27Q39.16,108,30.34,101.5C24.19,107.65,15.62,112.38,4,115.2l-4-7.3c10.5-2,18.3-5.76,24.06-10.88A127.07,127.07,0,0,0,6.78,87.17,146.74,146.74,0,0,0,15.62,69H.9V61.82H18.18a64.43,64.43,0,0,0,2.68-9.47H3.71V18.69h13.7V9.86h-16V2.69Z"/></g></g></svg>